<svg width="565" height="979" viewBox="0 0 565 979" fill="none" xmlns="http://www.w3.org/2000/svg">
<path fill-rule="evenodd" clip-rule="evenodd" d="M369.547 337.116C397.989 301.603 415 256.538 415 207.5C415 92.9009 322.099 0 207.5 0C92.9009 0 0 92.9009 0 207.5C0 313.042 78.7964 400.18 180.77 413.294L369.127 937.326C380.71 969.549 416.221 986.282 448.444 974.7L523.18 947.837C555.403 936.254 572.136 900.743 560.554 868.52L369.547 337.116ZM207.5 360.587C122.952 360.587 54.4129 292.048 54.4129 207.5C54.4129 122.952 122.952 54.4129 207.5 54.4129C292.048 54.4129 360.587 122.952 360.587 207.5C360.587 292.048 292.048 360.587 207.5 360.587Z" fill="white" fill-opacity="0.85"/>
</svg>
